<svg xmlns="http://www.w3.org/2000/svg" version="1.1" xmlns:xlink="http://www.w3.org/1999/xlink" xmlns:svgjs="http://svgjs.dev/svgjs" width="2000" height="1247" viewBox="0 0 2000 1247"><g transform="matrix(1,0,0,1,-1.2121212121212466,0.504858299595071)"><svg viewBox="0 0 396 247" data-background-color="#ffffff" preserveAspectRatio="xMidYMid meet" height="1247" width="2000" xmlns="http://www.w3.org/2000/svg" xmlns:xlink="http://www.w3.org/1999/xlink"><g id="tight-bounds" transform="matrix(1,0,0,1,0.2400000000000091,-0.09999999999999432)"><svg viewBox="0 0 395.52 247.2" height="247.2" width="395.52"><g><svg></svg></g><g><svg viewBox="0 0 395.52 247.2" height="247.2" width="395.52"><g transform="matrix(1,0,0,1,122.70363130434782,47.215199999999996)"><svg viewBox="0 0 150.11273739130434 152.7696" height="152.7696" width="150.11273739130434"><g><svg viewBox="0 0 150.11273739130434 152.7696" height="152.7696" width="150.11273739130434"><g><svg viewBox="0 0 150.11273739130436 152.76960000000003" height="152.7696" width="150.11273739130434"><g><svg viewBox="0 0 150.11273739130436 152.76960000000003" height="152.76960000000003" width="150.11273739130436"><g id="textblocktransform"><svg viewBox="0 0 150.11273739130436 152.76960000000003" height="152.76960000000003" width="150.11273739130436" id="textblock"><g><svg viewBox="0 0 150.11273739130436 152.76960000000003" height="152.76960000000003" width="150.11273739130436"><g transform="matrix(1,0,0,1,0,0)"><svg width="150.11273739130436" viewBox="0.9000000357627869 -33.400001525878906 33.89999771118164 34.5" height="152.76960000000003" data-palette-color="#ff0033"><path d="M24.25-14.6Q14.4-13.4 10.3-12.5L10.3-12.5 7.6-1.8Q7.25-0.35 6.58 0.15 5.9 0.65 3.9 0.65L3.9 0.65Q2.35 0.65 1.63 0.13 0.9-0.4 0.9-1.65L0.9-1.65Q0.9-2.2 1.05-2.7L1.05-2.7 7.9-29.75Q8.45-31.95 9.08-32.68 9.7-33.4 11.35-33.4L11.35-33.4Q12.7-33.4 13.83-33.1 14.95-32.8 15-32.2L15-32.2Q15-32.1 14.35-29.5L14.35-29.5Q13.35-25.65 11.5-17.8L11.5-17.8Q18.9-19.3 25.55-19.85L25.55-19.85 27.85-29.15Q28.35-31.15 29.23-32.13 30.1-33.1 31.6-33.4L31.6-33.4Q33.45-33.05 34.02-32.83 34.6-32.6 34.8-32.15L34.8-32.15Q34.15-30.3 33.83-28.73 33.5-27.15 33.45-26.85L33.45-26.85Q32.8-23.35 31.9-19.7L31.9-19.7Q33.85-18.85 33.85-17.4L33.85-17.4Q33.85-15.95 30.75-14.95L30.75-14.95Q30.2-12.95 28.7-6.25L28.7-6.25Q28.35-4.4 27.7-1.65L27.7-1.65Q27 1.1 25.5 1.1L25.5 1.1Q20.9 1.1 20.9-1.05L20.9-1.05Q20.9-1.5 24.25-14.6L24.25-14.6Z" opacity="1" transform="matrix(1,0,0,1,0,0)" fill="#ff0033" class="wordmark-text-0" data-fill-palette-color="primary" id="text-0"></path></svg></g></svg></g></svg></g></svg></g></svg></g></svg></g></svg></g><g><path d="M0 123.6c0-68.262 55.338-123.6 123.6-123.6 30.402 0 58.24 10.976 79.768 29.183l-11.147 0c-19.26-14.022-42.974-22.294-68.621-22.295-64.458 0-116.712 52.254-116.712 116.712 0 64.458 52.254 116.712 116.712 116.712 25.647 0 49.361-8.272 68.621-22.295l11.147 0c-21.528 18.206-49.366 29.183-79.768 29.183-68.262 0-123.6-55.338-123.6-123.6z" fill="#ff0033" stroke="transparent" data-fill-palette-color="tertiary"></path></g></svg></g><defs></defs></svg><rect width="395.52" height="247.2" fill="none" stroke="none" visibility="hidden"></rect></g></svg></g></svg>